# Blender v3.0.0 OBJ File: ''
# www.blender.org
mtllib noteOutline.mtl
o Plane
v -0.025000 1.000000 1.000000
v 0.025000 1.000000 1.000000
v -0.025000 -1.000000 1.000000
v 0.025000 -1.000000 1.000000
v -0.025000 1.000000 -1.000000
v 0.025000 1.000000 -1.000000
v -0.025000 -1.000000 -1.000000
v 0.025000 -1.000000 -1.000000
v -0.000000 0.975000 0.975000
v -0.000000 1.025000 1.025000
v 0.000000 -1.025000 1.025000
v 0.000000 -0.975000 0.975000
v 0.000000 -1.025000 -1.025000
v 0.000000 -0.975000 -0.975000
v -0.000000 1.025000 -1.025000
v -0.000000 0.975000 -0.975000
vt 1.000000 0.000000
vt 0.000000 0.000000
vt 0.000000 0.000000
vt 1.000000 0.000000
vt 0.000000 0.000000
vt 1.000000 0.000000
vt 1.000000 0.000000
vt 0.000000 0.000000
vt 1.000000 1.000000
vt 1.000000 1.000000
vt 1.000000 1.000000
vt 1.000000 1.000000
vt 0.000000 1.000000
vt 0.000000 1.000000
vt 0.000000 1.000000
vt 0.000000 1.000000
vn -0.7071 -0.0000 -0.7071
vn 0.7071 0.0000 -0.7071
vn -0.7071 -0.0000 0.7071
vn 0.7071 0.0000 0.7071
vn -0.7071 0.7071 0.0000
vn 0.7071 0.7071 0.0000
vn -0.7071 -0.7071 0.0000
vn 0.7071 -0.7071 0.0000
usemtl None
s off
f 12/1/1 1/2/1 9/3/1
f 9/3/2 4/4/2 12/1/2
f 10/5/3 3/6/3 11/7/3
f 11/7/4 2/8/4 10/5/4
f 14/9/5 3/6/5 12/1/5
f 12/1/6 8/10/6 14/9/6
f 11/7/7 7/11/7 13/12/7
f 13/12/8 4/4/8 11/7/8
f 16/13/3 7/11/3 14/9/3
f 14/9/4 6/14/4 16/13/4
f 13/12/1 5/15/1 15/16/1
f 15/16/2 8/10/2 13/12/2
f 9/3/7 5/15/7 16/13/7
f 16/13/8 2/8/8 9/3/8
f 15/16/5 1/2/5 10/5/5
f 10/5/6 6/14/6 15/16/6
f 12/1/1 3/6/1 1/2/1
f 9/3/2 2/8/2 4/4/2
f 10/5/3 1/2/3 3/6/3
f 11/7/4 4/4/4 2/8/4
f 14/9/5 7/11/5 3/6/5
f 12/1/6 4/4/6 8/10/6
f 11/7/7 3/6/7 7/11/7
f 13/12/8 8/10/8 4/4/8
f 16/13/3 5/15/3 7/11/3
f 14/9/4 8/10/4 6/14/4
f 13/12/1 7/11/1 5/15/1
f 15/16/2 6/14/2 8/10/2
f 9/3/7 1/2/7 5/15/7
f 16/13/8 6/14/8 2/8/8
f 15/16/5 5/15/5 1/2/5
f 10/5/6 2/8/6 6/14/6
